<mxfile host="app.diagrams.net" modified="2021-01-14T15:17:09.147Z" agent="5.0 (X11)" etag="Dz4A0GKbF54DldkdsPMe" version="14.1.1" type="github">
  <diagram name="Page-1" id="f1b7ffb7-ca1e-a977-7cf5-a751b3c06c05">
    <mxGraphModel dx="1651" dy="735" grid="1" gridSize="10" guides="1" tooltips="1" connect="1" arrows="1" fold="1" page="1" pageScale="1" pageWidth="826" pageHeight="1169" background="#ffffff" math="0" shadow="0">
      <root>
        <mxCell id="0" />
        <mxCell id="1" parent="0" />
        <mxCell id="13" value="" style="verticalLabelPosition=bottom;verticalAlign=top;strokeWidth=1;shape=mxgraph.mockup.graphics.iconGrid;strokeColor=#CCCCCC;gridSize=1,1;" parent="1" vertex="1">
          <mxGeometry x="2" y="108" width="667" height="582" as="geometry" />
        </mxCell>
        <mxCell id="2" value="Chinese Checkers Game. You are [Player1]" style="text;spacingTop=-5;fontSize=18;fontStyle=0" parent="1" vertex="1">
          <mxGeometry x="175" y="10" width="350" height="30" as="geometry" />
        </mxCell>
        <mxCell id="3" value="" style="line;strokeWidth=1" parent="1" vertex="1">
          <mxGeometry y="75" width="670" height="10" as="geometry" />
        </mxCell>
        <mxCell id="4" value="" style="line;strokeWidth=1" parent="1" vertex="1">
          <mxGeometry y="100" width="670" height="10" as="geometry" />
        </mxCell>
        <mxCell id="5" value="Change colors" style="text;spacingTop=-5;strokeColor=#FF0000;" parent="1" vertex="1">
          <mxGeometry x="2" y="82" width="96" height="20" as="geometry" />
        </mxCell>
        <mxCell id="onRxSC0vhNo62aeHE-lM-69" value="" style="shape=crossbar;whiteSpace=wrap;html=1;rounded=1;rotation=-90;strokeColor=#CCCC00;fillColor=#FFFF66;shadow=0;" vertex="1" parent="1">
          <mxGeometry x="430" y="388" width="583.5" height="20" as="geometry" />
        </mxCell>
        <mxCell id="onRxSC0vhNo62aeHE-lM-70" value="" style="shape=crossbar;whiteSpace=wrap;html=1;rounded=1;rotation=0;strokeColor=#0000FF;fillColor=#FFFFFF;shadow=0;" vertex="1" parent="1">
          <mxGeometry x="5" y="740" width="670" height="20" as="geometry" />
        </mxCell>
        <mxCell id="onRxSC0vhNo62aeHE-lM-72" value="" style="shape=crossbar;whiteSpace=wrap;html=1;rounded=1;rotation=0;strokeColor=#FF0000;fillColor=#FFFFFF;shadow=0;" vertex="1" parent="1">
          <mxGeometry y="55" width="100" height="20" as="geometry" />
        </mxCell>
        <mxCell id="onRxSC0vhNo62aeHE-lM-73" value="" style="shape=crossbar;whiteSpace=wrap;html=1;rounded=1;rotation=0;strokeColor=#FF0000;fillColor=#FFFFFF;shadow=0;" vertex="1" parent="1">
          <mxGeometry x="100" y="55" width="100" height="20" as="geometry" />
        </mxCell>
        <mxCell id="onRxSC0vhNo62aeHE-lM-77" value="" style="shape=crossbar;whiteSpace=wrap;html=1;rounded=1;rotation=0;strokeColor=#FF0000;fillColor=#FFFFFF;shadow=0;" vertex="1" parent="1">
          <mxGeometry x="200" y="55" width="100" height="20" as="geometry" />
        </mxCell>
        <mxCell id="onRxSC0vhNo62aeHE-lM-78" value="" style="shape=crossbar;whiteSpace=wrap;html=1;rounded=1;rotation=0;strokeColor=#FF0000;fillColor=#FFFFFF;shadow=0;" vertex="1" parent="1">
          <mxGeometry x="300" y="55" width="100" height="20" as="geometry" />
        </mxCell>
        <mxCell id="onRxSC0vhNo62aeHE-lM-79" value="" style="shape=crossbar;whiteSpace=wrap;html=1;rounded=1;rotation=0;strokeColor=#FF0000;fillColor=#FFFFFF;shadow=0;" vertex="1" parent="1">
          <mxGeometry x="400" y="55" width="100" height="20" as="geometry" />
        </mxCell>
        <mxCell id="onRxSC0vhNo62aeHE-lM-80" value="" style="shape=crossbar;whiteSpace=wrap;html=1;rounded=1;rotation=90;strokeColor=#FF0000;fillColor=#FFFFFF;shadow=0;" vertex="1" parent="1">
          <mxGeometry x="680.63" y="82.88" width="20.75" height="20" as="geometry" />
        </mxCell>
        <mxCell id="onRxSC0vhNo62aeHE-lM-82" value="&lt;font style=&quot;font-size: 10px&quot; color=&quot;#FF0000&quot;&gt;menuItemX =100&lt;/font&gt;" style="text;html=1;resizable=0;autosize=1;align=center;verticalAlign=middle;points=[];fillColor=none;strokeColor=none;rounded=0;shadow=0;" vertex="1" parent="1">
          <mxGeometry x="105" y="40" width="90" height="20" as="geometry" />
        </mxCell>
        <mxCell id="onRxSC0vhNo62aeHE-lM-83" value="&lt;font style=&quot;font-size: 10px&quot; color=&quot;#FF0000&quot;&gt;menuItemX =100&lt;/font&gt;" style="text;html=1;resizable=0;autosize=1;align=center;verticalAlign=middle;points=[];fillColor=none;strokeColor=none;rounded=0;shadow=0;" vertex="1" parent="1">
          <mxGeometry x="5" y="40" width="90" height="20" as="geometry" />
        </mxCell>
        <mxCell id="onRxSC0vhNo62aeHE-lM-84" value="&lt;font style=&quot;font-size: 10px&quot; color=&quot;#FF0000&quot;&gt;menuItemX =100&lt;/font&gt;" style="text;html=1;resizable=0;autosize=1;align=center;verticalAlign=middle;points=[];fillColor=none;strokeColor=none;rounded=0;shadow=0;" vertex="1" parent="1">
          <mxGeometry x="205" y="40" width="90" height="20" as="geometry" />
        </mxCell>
        <mxCell id="onRxSC0vhNo62aeHE-lM-85" value="&lt;font style=&quot;font-size: 10px&quot; color=&quot;#FF0000&quot;&gt;menuItemX =100&lt;/font&gt;" style="text;html=1;resizable=0;autosize=1;align=center;verticalAlign=middle;points=[];fillColor=none;strokeColor=none;rounded=0;shadow=0;" vertex="1" parent="1">
          <mxGeometry x="305" y="40" width="90" height="20" as="geometry" />
        </mxCell>
        <mxCell id="onRxSC0vhNo62aeHE-lM-86" value="&lt;font style=&quot;font-size: 10px&quot; color=&quot;#FF0000&quot;&gt;menuItemX =100&lt;/font&gt;" style="text;html=1;resizable=0;autosize=1;align=center;verticalAlign=middle;points=[];fillColor=none;strokeColor=none;rounded=0;shadow=0;" vertex="1" parent="1">
          <mxGeometry x="405" y="40" width="90" height="20" as="geometry" />
        </mxCell>
        <mxCell id="onRxSC0vhNo62aeHE-lM-87" value="&lt;font style=&quot;font-size: 10px&quot; color=&quot;#FF0000&quot;&gt;menuItemY =?&lt;/font&gt;" style="text;html=1;resizable=0;autosize=1;align=center;verticalAlign=middle;points=[];fillColor=none;strokeColor=none;rounded=0;shadow=0;" vertex="1" parent="1">
          <mxGeometry x="690" y="80" width="80" height="20" as="geometry" />
        </mxCell>
        <mxCell id="onRxSC0vhNo62aeHE-lM-88" value="" style="shape=crossbar;whiteSpace=wrap;html=1;rounded=1;rotation=-90;strokeColor=#0000FF;fillColor=#FFFFFF;shadow=0;" vertex="1" parent="1">
          <mxGeometry x="441.63" y="360.13" width="650.75" height="20" as="geometry" />
        </mxCell>
        <mxCell id="onRxSC0vhNo62aeHE-lM-93" value="Resign" style="text;spacingTop=-5;strokeColor=#FF0000;" vertex="1" parent="1">
          <mxGeometry x="102" y="82" width="96" height="20" as="geometry" />
        </mxCell>
        <mxCell id="onRxSC0vhNo62aeHE-lM-94" value="Skip" style="text;spacingTop=-5;strokeColor=#FF0000;" vertex="1" parent="1">
          <mxGeometry x="202" y="82" width="96" height="20" as="geometry" />
        </mxCell>
        <mxCell id="onRxSC0vhNo62aeHE-lM-95" value="Rotate" style="text;spacingTop=-5;strokeColor=#FF0000;" vertex="1" parent="1">
          <mxGeometry x="302" y="82" width="96" height="20" as="geometry" />
        </mxCell>
        <mxCell id="onRxSC0vhNo62aeHE-lM-96" value="Turn: [Player1]" style="text;spacingTop=-5;strokeColor=#FF0000;" vertex="1" parent="1">
          <mxGeometry x="402" y="82" width="96" height="20" as="geometry" />
        </mxCell>
        <mxCell id="onRxSC0vhNo62aeHE-lM-98" value="" style="verticalLabelPosition=bottom;verticalAlign=top;strokeWidth=1;shape=mxgraph.mockup.graphics.iconGrid;strokeColor=#00CC00;gridSize=1,1;" vertex="1" parent="1">
          <mxGeometry x="73" y="126" width="534" height="544" as="geometry" />
        </mxCell>
        <mxCell id="onRxSC0vhNo62aeHE-lM-133" value="" style="ellipse;whiteSpace=wrap;html=1;aspect=fixed;shadow=0;strokeColor=#FFFF66;fillColor=#FFFFCC;" vertex="1" parent="1">
          <mxGeometry x="266" y="308.25" width="60" height="60" as="geometry" />
        </mxCell>
        <mxCell id="onRxSC0vhNo62aeHE-lM-137" value="" style="ellipse;whiteSpace=wrap;html=1;aspect=fixed;shadow=0;strokeColor=#FFFF66;fillColor=#FFFFCC;" vertex="1" parent="1">
          <mxGeometry x="345" y="308.25" width="60" height="60" as="geometry" />
        </mxCell>
        <mxCell id="onRxSC0vhNo62aeHE-lM-138" value="" style="ellipse;whiteSpace=wrap;html=1;aspect=fixed;shadow=0;strokeColor=#FFFF66;fillColor=#FFFFCC;" vertex="1" parent="1">
          <mxGeometry x="266" y="428.25" width="60" height="60" as="geometry" />
        </mxCell>
        <mxCell id="onRxSC0vhNo62aeHE-lM-139" value="" style="ellipse;whiteSpace=wrap;html=1;aspect=fixed;shadow=0;strokeColor=#FFFF66;fillColor=#FFFFCC;" vertex="1" parent="1">
          <mxGeometry x="345" y="428.25" width="60" height="60" as="geometry" />
        </mxCell>
        <mxCell id="onRxSC0vhNo62aeHE-lM-143" value="" style="ellipse;whiteSpace=wrap;html=1;aspect=fixed;shadow=0;strokeColor=#FF0000;fillColor=#FFFF66;" vertex="1" parent="1">
          <mxGeometry x="305" y="370" width="60" height="60" as="geometry" />
        </mxCell>
        <mxCell id="onRxSC0vhNo62aeHE-lM-144" value="" style="ellipse;whiteSpace=wrap;html=1;aspect=fixed;shadow=0;strokeColor=#FFFF66;fillColor=#FFFFCC;" vertex="1" parent="1">
          <mxGeometry x="270" y="186.5" width="60" height="60" as="geometry" />
        </mxCell>
        <mxCell id="onRxSC0vhNo62aeHE-lM-145" value="" style="ellipse;whiteSpace=wrap;html=1;aspect=fixed;shadow=0;strokeColor=#FF0000;fillColor=#FFFF66;" vertex="1" parent="1">
          <mxGeometry x="309.5" y="128.25" width="60" height="60" as="geometry" />
        </mxCell>
        <mxCell id="onRxSC0vhNo62aeHE-lM-146" value="" style="ellipse;whiteSpace=wrap;html=1;aspect=fixed;shadow=0;strokeColor=#FFFF66;fillColor=#FFFFCC;" vertex="1" parent="1">
          <mxGeometry x="349" y="186.5" width="60" height="60" as="geometry" />
        </mxCell>
        <mxCell id="onRxSC0vhNo62aeHE-lM-149" value="" style="ellipse;whiteSpace=wrap;html=1;aspect=fixed;shadow=0;strokeColor=#FFFF66;fillColor=#FFFFCC;" vertex="1" parent="1">
          <mxGeometry x="309" y="248.25" width="60" height="60" as="geometry" />
        </mxCell>
        <mxCell id="onRxSC0vhNo62aeHE-lM-150" value="" style="ellipse;whiteSpace=wrap;html=1;aspect=fixed;shadow=0;strokeColor=#FF0000;fillColor=#FFFF66;" vertex="1" parent="1">
          <mxGeometry x="305" y="606.5" width="60" height="60" as="geometry" />
        </mxCell>
        <mxCell id="onRxSC0vhNo62aeHE-lM-151" value="" style="ellipse;whiteSpace=wrap;html=1;aspect=fixed;shadow=0;strokeColor=#FFFF66;fillColor=#FFFFCC;" vertex="1" parent="1">
          <mxGeometry x="266" y="546.5" width="60" height="60" as="geometry" />
        </mxCell>
        <mxCell id="onRxSC0vhNo62aeHE-lM-152" value="" style="ellipse;whiteSpace=wrap;html=1;aspect=fixed;shadow=0;strokeColor=#FFFF66;fillColor=#FFFFCC;" vertex="1" parent="1">
          <mxGeometry x="345" y="546.5" width="60" height="60" as="geometry" />
        </mxCell>
        <mxCell id="onRxSC0vhNo62aeHE-lM-155" value="" style="ellipse;whiteSpace=wrap;html=1;aspect=fixed;shadow=0;strokeColor=#FFFF66;fillColor=#FFFFCC;" vertex="1" parent="1">
          <mxGeometry x="305" y="488.25" width="60" height="60" as="geometry" />
        </mxCell>
        <mxCell id="onRxSC0vhNo62aeHE-lM-156" value="" style="ellipse;whiteSpace=wrap;html=1;aspect=fixed;shadow=0;strokeColor=#FFFF66;fillColor=#FFFFCC;" vertex="1" parent="1">
          <mxGeometry x="424" y="306.5" width="60" height="60" as="geometry" />
        </mxCell>
        <mxCell id="onRxSC0vhNo62aeHE-lM-157" value="" style="ellipse;whiteSpace=wrap;html=1;aspect=fixed;shadow=0;strokeColor=#FFFF66;fillColor=#FFFFCC;" vertex="1" parent="1">
          <mxGeometry x="503" y="306.5" width="60" height="60" as="geometry" />
        </mxCell>
        <mxCell id="onRxSC0vhNo62aeHE-lM-161" value="" style="ellipse;whiteSpace=wrap;html=1;aspect=fixed;shadow=0;strokeColor=#FF0000;fillColor=#FFFF66;" vertex="1" parent="1">
          <mxGeometry x="546" y="246.5" width="60" height="60" as="geometry" />
        </mxCell>
        <mxCell id="onRxSC0vhNo62aeHE-lM-162" value="" style="ellipse;whiteSpace=wrap;html=1;aspect=fixed;shadow=0;strokeColor=#FFFF66;fillColor=#FFFFCC;" vertex="1" parent="1">
          <mxGeometry x="388" y="246.5" width="60" height="60" as="geometry" />
        </mxCell>
        <mxCell id="onRxSC0vhNo62aeHE-lM-163" value="" style="ellipse;whiteSpace=wrap;html=1;aspect=fixed;shadow=0;strokeColor=#FFFF66;fillColor=#FFFFCC;" vertex="1" parent="1">
          <mxGeometry x="467" y="246.5" width="60" height="60" as="geometry" />
        </mxCell>
        <mxCell id="onRxSC0vhNo62aeHE-lM-164" value="" style="ellipse;whiteSpace=wrap;html=1;aspect=fixed;shadow=0;strokeColor=#FFFF66;fillColor=#FFFFCC;" vertex="1" parent="1">
          <mxGeometry x="424" y="428.25" width="60" height="60" as="geometry" />
        </mxCell>
        <mxCell id="onRxSC0vhNo62aeHE-lM-165" value="" style="ellipse;whiteSpace=wrap;html=1;aspect=fixed;shadow=0;strokeColor=#FFFF66;fillColor=#FFFFCC;" vertex="1" parent="1">
          <mxGeometry x="503" y="428.25" width="60" height="60" as="geometry" />
        </mxCell>
        <mxCell id="onRxSC0vhNo62aeHE-lM-166" value="" style="ellipse;whiteSpace=wrap;html=1;aspect=fixed;shadow=0;strokeColor=#FF0000;fillColor=#FFFF99;" vertex="1" parent="1">
          <mxGeometry x="542" y="490" width="60" height="60" as="geometry" />
        </mxCell>
        <mxCell id="onRxSC0vhNo62aeHE-lM-167" value="" style="ellipse;whiteSpace=wrap;html=1;aspect=fixed;shadow=0;strokeColor=#FFFF66;fillColor=#FFFFCC;" vertex="1" parent="1">
          <mxGeometry x="384" y="490" width="60" height="60" as="geometry" />
        </mxCell>
        <mxCell id="onRxSC0vhNo62aeHE-lM-168" value="" style="ellipse;whiteSpace=wrap;html=1;aspect=fixed;shadow=0;strokeColor=#FFFF66;fillColor=#FFFFCC;" vertex="1" parent="1">
          <mxGeometry x="463" y="490" width="60" height="60" as="geometry" />
        </mxCell>
        <mxCell id="onRxSC0vhNo62aeHE-lM-170" value="" style="ellipse;whiteSpace=wrap;html=1;aspect=fixed;shadow=0;strokeColor=#FFFF66;fillColor=#FFFFCC;" vertex="1" parent="1">
          <mxGeometry x="388" y="368.25" width="60" height="60" as="geometry" />
        </mxCell>
        <mxCell id="onRxSC0vhNo62aeHE-lM-171" value="" style="ellipse;whiteSpace=wrap;html=1;aspect=fixed;shadow=0;strokeColor=#FFFF66;fillColor=#FFFFCC;" vertex="1" parent="1">
          <mxGeometry x="467" y="368.25" width="60" height="60" as="geometry" />
        </mxCell>
        <mxCell id="onRxSC0vhNo62aeHE-lM-172" value="" style="ellipse;whiteSpace=wrap;html=1;aspect=fixed;shadow=0;strokeColor=#FFFF66;fillColor=#FFFFCC;" vertex="1" parent="1">
          <mxGeometry x="113" y="306.5" width="60" height="60" as="geometry" />
        </mxCell>
        <mxCell id="onRxSC0vhNo62aeHE-lM-173" value="" style="ellipse;whiteSpace=wrap;html=1;aspect=fixed;shadow=0;strokeColor=#FFFF66;fillColor=#FFFFCC;" vertex="1" parent="1">
          <mxGeometry x="192" y="306.5" width="60" height="60" as="geometry" />
        </mxCell>
        <mxCell id="onRxSC0vhNo62aeHE-lM-174" value="" style="ellipse;whiteSpace=wrap;html=1;aspect=fixed;shadow=0;strokeColor=#FFFF66;fillColor=#FFFFCC;" vertex="1" parent="1">
          <mxGeometry x="116" y="426.5" width="60" height="60" as="geometry" />
        </mxCell>
        <mxCell id="onRxSC0vhNo62aeHE-lM-175" value="" style="ellipse;whiteSpace=wrap;html=1;aspect=fixed;shadow=0;strokeColor=#FFFF66;fillColor=#FFFFCC;" vertex="1" parent="1">
          <mxGeometry x="192" y="426.5" width="60" height="60" as="geometry" />
        </mxCell>
        <mxCell id="onRxSC0vhNo62aeHE-lM-177" value="" style="ellipse;whiteSpace=wrap;html=1;aspect=fixed;shadow=0;strokeColor=#FFFF66;fillColor=#FFFFCC;" vertex="1" parent="1">
          <mxGeometry x="152" y="368.25" width="60" height="60" as="geometry" />
        </mxCell>
        <mxCell id="onRxSC0vhNo62aeHE-lM-178" value="" style="ellipse;whiteSpace=wrap;html=1;aspect=fixed;shadow=0;strokeColor=#FF0000;fillColor=#CCFF99;" vertex="1" parent="1">
          <mxGeometry x="77" y="246.5" width="60" height="60" as="geometry" />
        </mxCell>
        <mxCell id="onRxSC0vhNo62aeHE-lM-179" value="" style="ellipse;whiteSpace=wrap;html=1;aspect=fixed;shadow=0;strokeColor=#FFFF66;fillColor=#FFFFCC;" vertex="1" parent="1">
          <mxGeometry x="156" y="246.5" width="60" height="60" as="geometry" />
        </mxCell>
        <mxCell id="onRxSC0vhNo62aeHE-lM-180" value="" style="ellipse;whiteSpace=wrap;html=1;aspect=fixed;shadow=0;strokeColor=#FF0000;fillColor=#FFFFCC;" vertex="1" parent="1">
          <mxGeometry x="76" y="486.5" width="60" height="60" as="geometry" />
        </mxCell>
        <mxCell id="onRxSC0vhNo62aeHE-lM-181" value="" style="ellipse;whiteSpace=wrap;html=1;aspect=fixed;shadow=0;strokeColor=#FFFF66;fillColor=#FFFFCC;" vertex="1" parent="1">
          <mxGeometry x="152" y="486.5" width="60" height="60" as="geometry" />
        </mxCell>
        <mxCell id="onRxSC0vhNo62aeHE-lM-182" value="" style="ellipse;whiteSpace=wrap;html=1;aspect=fixed;shadow=0;strokeColor=#FFFF66;fillColor=#FFFFCC;" vertex="1" parent="1">
          <mxGeometry x="235" y="244.75" width="60" height="60" as="geometry" />
        </mxCell>
        <mxCell id="onRxSC0vhNo62aeHE-lM-183" value="" style="ellipse;whiteSpace=wrap;html=1;aspect=fixed;shadow=0;strokeColor=#FFFF66;fillColor=#FFFFCC;" vertex="1" parent="1">
          <mxGeometry x="231" y="488.25" width="60" height="60" as="geometry" />
        </mxCell>
        <mxCell id="onRxSC0vhNo62aeHE-lM-184" value="" style="ellipse;whiteSpace=wrap;html=1;aspect=fixed;shadow=0;strokeColor=#FFFF66;fillColor=#FFFFCC;" vertex="1" parent="1">
          <mxGeometry x="235" y="366.5" width="60" height="60" as="geometry" />
        </mxCell>
        <mxCell id="onRxSC0vhNo62aeHE-lM-186" value="" style="shape=crossbar;whiteSpace=wrap;html=1;rounded=1;rotation=90;strokeColor=#00CC00;fillColor=#FFFFFF;shadow=0;" vertex="1" parent="1">
          <mxGeometry x="628.1" y="94.29" width="17.37" height="43.81" as="geometry" />
        </mxCell>
        <mxCell id="onRxSC0vhNo62aeHE-lM-187" value="&lt;div&gt;&lt;span style=&quot;background-color: rgb(255 , 204 , 255)&quot;&gt;&lt;font style=&quot;font-size: 10px&quot; color=&quot;#00CC00&quot;&gt;&lt;span style=&quot;background-color: rgb(255 , 204 , 255)&quot;&gt;&lt;font style=&quot;font-size: 10px&quot; color=&quot;#00CC00&quot;&gt;MarginY&lt;/font&gt;&lt;/span&gt;&lt;span style=&quot;background-color: rgb(255 , 204 , 255)&quot;&gt;&lt;/span&gt; =?&lt;/font&gt;&lt;/span&gt;&lt;/div&gt;" style="text;html=1;resizable=0;autosize=1;align=center;verticalAlign=middle;points=[];fillColor=none;strokeColor=none;rounded=0;shadow=0;" vertex="1" parent="1">
          <mxGeometry x="652.68" y="105" width="70" height="20" as="geometry" />
        </mxCell>
        <mxCell id="onRxSC0vhNo62aeHE-lM-188" value="&lt;font color=&quot;#999900&quot;&gt;boardY=?&lt;/font&gt;" style="text;html=1;resizable=0;autosize=1;align=center;verticalAlign=middle;points=[];fillColor=none;strokeColor=none;rounded=0;shadow=0;rotation=90;" vertex="1" parent="1">
          <mxGeometry x="701.38" y="386.5" width="70" height="20" as="geometry" />
        </mxCell>
        <mxCell id="onRxSC0vhNo62aeHE-lM-189" value="&lt;font color=&quot;#0000CC&quot;&gt;GameY=?&lt;/font&gt;" style="text;html=1;resizable=0;autosize=1;align=center;verticalAlign=middle;points=[];fillColor=none;strokeColor=none;rounded=0;shadow=0;rotation=90;" vertex="1" parent="1">
          <mxGeometry x="760" y="388" width="70" height="20" as="geometry" />
        </mxCell>
        <mxCell id="onRxSC0vhNo62aeHE-lM-190" value="&lt;div&gt;&lt;font color=&quot;#0000CC&quot;&gt;GameX=?&lt;/font&gt;&lt;/div&gt;" style="text;html=1;resizable=0;autosize=1;align=center;verticalAlign=middle;points=[];fillColor=none;strokeColor=none;rounded=0;shadow=0;rotation=0;" vertex="1" parent="1">
          <mxGeometry x="303" y="750" width="70" height="20" as="geometry" />
        </mxCell>
        <mxCell id="onRxSC0vhNo62aeHE-lM-195" value="" style="shape=crossbar;whiteSpace=wrap;html=1;rounded=1;rotation=90;strokeColor=#00CC00;fillColor=#FFFFFF;shadow=0;" vertex="1" parent="1">
          <mxGeometry x="635.37" y="655" width="17.37" height="50" as="geometry" />
        </mxCell>
        <mxCell id="onRxSC0vhNo62aeHE-lM-196" value="&lt;span style=&quot;background-color: rgb(255 , 204 , 255)&quot;&gt;&lt;font style=&quot;font-size: 10px&quot; color=&quot;#00CC00&quot;&gt;&lt;span style=&quot;background-color: rgb(255 , 204 , 255)&quot;&gt;&lt;font style=&quot;font-size: 10px&quot; color=&quot;#00CC00&quot;&gt;MarginX&lt;/font&gt;&lt;/span&gt; =?&lt;/font&gt;&lt;/span&gt;" style="text;html=1;resizable=0;autosize=1;align=center;verticalAlign=middle;points=[];fillColor=none;strokeColor=none;rounded=0;shadow=0;" vertex="1" parent="1">
          <mxGeometry x="609" y="720" width="70" height="20" as="geometry" />
        </mxCell>
        <mxCell id="onRxSC0vhNo62aeHE-lM-198" value="&lt;div&gt;&lt;span style=&quot;background-color: rgb(255 , 204 , 255)&quot;&gt;&lt;font style=&quot;font-size: 10px&quot; color=&quot;#00CC00&quot;&gt;&lt;span style=&quot;background-color: rgb(255 , 204 , 255)&quot;&gt;&lt;font style=&quot;font-size: 10px&quot; color=&quot;#00CC00&quot;&gt;MarginY&lt;/font&gt;&lt;/span&gt;&lt;span style=&quot;background-color: rgb(255 , 204 , 255)&quot;&gt;&lt;/span&gt; =?&lt;/font&gt;&lt;/span&gt;&lt;/div&gt;" style="text;html=1;resizable=0;autosize=1;align=center;verticalAlign=middle;points=[];fillColor=none;strokeColor=none;rounded=0;shadow=0;" vertex="1" parent="1">
          <mxGeometry x="653.06" y="669" width="70" height="20" as="geometry" />
        </mxCell>
        <mxCell id="onRxSC0vhNo62aeHE-lM-200" value="" style="shape=crossbar;whiteSpace=wrap;html=1;rounded=1;rotation=0;strokeColor=#00CC00;fillColor=#FFFFFF;shadow=0;" vertex="1" parent="1">
          <mxGeometry x="5" y="700" width="60" height="20" as="geometry" />
        </mxCell>
        <mxCell id="onRxSC0vhNo62aeHE-lM-201" value="" style="shape=crossbar;whiteSpace=wrap;html=1;rounded=1;rotation=0;strokeColor=#00CC00;fillColor=#FFFFFF;shadow=0;" vertex="1" parent="1">
          <mxGeometry x="614" y="700" width="60" height="20" as="geometry" />
        </mxCell>
        <mxCell id="onRxSC0vhNo62aeHE-lM-202" value="&lt;span style=&quot;background-color: rgb(255 , 204 , 255)&quot;&gt;&lt;font style=&quot;font-size: 10px&quot; color=&quot;#00CC00&quot;&gt;&lt;span style=&quot;background-color: rgb(255 , 204 , 255)&quot;&gt;&lt;font style=&quot;font-size: 10px&quot; color=&quot;#00CC00&quot;&gt;MarginX&lt;/font&gt;&lt;/span&gt; =?&lt;/font&gt;&lt;/span&gt;" style="text;html=1;resizable=0;autosize=1;align=center;verticalAlign=middle;points=[];fillColor=none;strokeColor=none;rounded=0;shadow=0;" vertex="1" parent="1">
          <mxGeometry x="2" y="720" width="70" height="20" as="geometry" />
        </mxCell>
        <mxCell id="onRxSC0vhNo62aeHE-lM-203" value="" style="endArrow=none;dashed=1;html=1;dashPattern=1 3;strokeWidth=2;entryX=0;entryY=0.224;entryDx=0;entryDy=0;entryPerimeter=0;" edge="1" parent="1" target="onRxSC0vhNo62aeHE-lM-98">
          <mxGeometry width="50" height="50" relative="1" as="geometry">
            <mxPoint x="303" y="370" as="sourcePoint" />
            <mxPoint x="353" y="320" as="targetPoint" />
          </mxGeometry>
        </mxCell>
        <mxCell id="onRxSC0vhNo62aeHE-lM-209" value="" style="endArrow=none;dashed=1;html=1;dashPattern=1 3;strokeWidth=2;" edge="1" parent="1">
          <mxGeometry width="50" height="50" relative="1" as="geometry">
            <mxPoint x="302" y="367" as="sourcePoint" />
            <mxPoint x="72" y="367" as="targetPoint" />
          </mxGeometry>
        </mxCell>
        <mxCell id="onRxSC0vhNo62aeHE-lM-210" value="" style="endArrow=none;dashed=1;html=1;dashPattern=1 3;strokeWidth=2;" edge="1" parent="1">
          <mxGeometry width="50" height="50" relative="1" as="geometry">
            <mxPoint x="70" y="250" as="sourcePoint" />
            <mxPoint x="70" y="370" as="targetPoint" />
          </mxGeometry>
        </mxCell>
        <mxCell id="onRxSC0vhNo62aeHE-lM-211" value="&lt;font style=&quot;font-size: 24px&quot;&gt;n&lt;/font&gt;" style="text;html=1;resizable=0;autosize=1;align=center;verticalAlign=middle;points=[];fillColor=none;strokeColor=none;rounded=0;shadow=0;" vertex="1" parent="1">
          <mxGeometry x="42" y="290" width="30" height="30" as="geometry" />
        </mxCell>
        <mxCell id="onRxSC0vhNo62aeHE-lM-213" value="&lt;font style=&quot;font-size: 18px&quot;&gt;&lt;font style=&quot;font-size: 24px&quot;&gt;2&lt;/font&gt;&lt;font style=&quot;font-size: 24px&quot;&gt;n&lt;/font&gt;&lt;/font&gt;" style="text;html=1;resizable=0;autosize=1;align=center;verticalAlign=middle;points=[];fillColor=none;strokeColor=none;rounded=0;shadow=0;rotation=30;" vertex="1" parent="1">
          <mxGeometry x="180" y="278.25" width="40" height="30" as="geometry" />
        </mxCell>
        <mxCell id="onRxSC0vhNo62aeHE-lM-214" value="&lt;font style=&quot;font-size: 24px&quot;&gt;nSQRT(3)/2&lt;/font&gt;" style="text;html=1;resizable=0;autosize=1;align=center;verticalAlign=middle;points=[];fillColor=none;strokeColor=none;rounded=0;shadow=0;" vertex="1" parent="1">
          <mxGeometry x="126" y="370" width="140" height="30" as="geometry" />
        </mxCell>
        <mxCell id="onRxSC0vhNo62aeHE-lM-215" value="" style="endArrow=none;dashed=1;html=1;dashPattern=1 3;strokeWidth=2;entryX=0.425;entryY=0.007;entryDx=0;entryDy=0;entryPerimeter=0;" edge="1" parent="1">
          <mxGeometry width="50" height="50" relative="1" as="geometry">
            <mxPoint x="307" y="372" as="sourcePoint" />
            <mxPoint x="306.95000000000005" y="131.808" as="targetPoint" />
            <Array as="points">
              <mxPoint x="307" y="342" />
            </Array>
          </mxGeometry>
        </mxCell>
        <mxCell id="onRxSC0vhNo62aeHE-lM-216" value="&lt;font style=&quot;font-size: 18px&quot;&gt;&lt;font style=&quot;font-size: 24px&quot;&gt;2&lt;/font&gt;&lt;font style=&quot;font-size: 24px&quot;&gt;n&lt;/font&gt;&lt;/font&gt;" style="text;html=1;resizable=0;autosize=1;align=center;verticalAlign=middle;points=[];fillColor=none;strokeColor=none;rounded=0;shadow=0;rotation=-90;" vertex="1" parent="1">
          <mxGeometry x="269" y="240" width="40" height="30" as="geometry" />
        </mxCell>
        <mxCell id="onRxSC0vhNo62aeHE-lM-217" value="" style="endArrow=none;dashed=1;html=1;dashPattern=1 3;strokeWidth=2;entryX=0;entryY=0;entryDx=0;entryDy=0;exitX=0;exitY=0;exitDx=0;exitDy=0;" edge="1" parent="1">
          <mxGeometry width="50" height="50" relative="1" as="geometry">
            <mxPoint x="549.7867965644036" y="247.28679656440363" as="sourcePoint" />
            <mxPoint x="308.78679656440363" y="370.78679656440363" as="targetPoint" />
          </mxGeometry>
        </mxCell>
        <mxCell id="onRxSC0vhNo62aeHE-lM-218" value="&lt;font style=&quot;font-size: 18px&quot;&gt;&lt;font style=&quot;font-size: 24px&quot;&gt;2&lt;/font&gt;&lt;font style=&quot;font-size: 24px&quot;&gt;n&lt;/font&gt;&lt;/font&gt;" style="text;html=1;resizable=0;autosize=1;align=center;verticalAlign=middle;points=[];fillColor=none;strokeColor=none;rounded=0;shadow=0;rotation=-30;" vertex="1" parent="1">
          <mxGeometry x="398" y="278.25" width="40" height="30" as="geometry" />
        </mxCell>
        <mxCell id="onRxSC0vhNo62aeHE-lM-221" value="" style="shape=crossbar;whiteSpace=wrap;html=1;rounded=1;rotation=-90;strokeColor=#009900;fillColor=#FFFF66;shadow=0;" vertex="1" parent="1">
          <mxGeometry x="368.32" y="387.7" width="538.88" height="20" as="geometry" />
        </mxCell>
        <mxCell id="onRxSC0vhNo62aeHE-lM-222" value="&lt;div&gt;&lt;font color=&quot;#009900&quot;&gt;CanasY=?&lt;/font&gt;&lt;/div&gt;" style="text;html=1;resizable=0;autosize=1;align=center;verticalAlign=middle;points=[];fillColor=none;strokeColor=none;rounded=0;shadow=0;rotation=90;" vertex="1" parent="1">
          <mxGeometry x="617.38" y="408.5" width="70" height="20" as="geometry" />
        </mxCell>
        <mxCell id="onRxSC0vhNo62aeHE-lM-223" value="" style="shape=crossbar;whiteSpace=wrap;html=1;rounded=1;rotation=0;strokeColor=#009900;fillColor=#FFFFFF;shadow=0;" vertex="1" parent="1">
          <mxGeometry x="72" y="695" width="528" height="20" as="geometry" />
        </mxCell>
        <mxCell id="onRxSC0vhNo62aeHE-lM-224" value="&lt;div&gt;&lt;font color=&quot;#009900&quot;&gt;GameX=?&lt;/font&gt;&lt;/div&gt;" style="text;html=1;resizable=0;autosize=1;align=center;verticalAlign=middle;points=[];fillColor=none;strokeColor=none;rounded=0;shadow=0;rotation=0;" vertex="1" parent="1">
          <mxGeometry x="302" y="705" width="70" height="20" as="geometry" />
        </mxCell>
        <mxCell id="onRxSC0vhNo62aeHE-lM-225" value="" style="shape=crossbar;whiteSpace=wrap;html=1;rounded=1;rotation=90;strokeColor=#0000CC;fillColor=#FFFFFF;shadow=0;" vertex="1" parent="1">
          <mxGeometry x="670.63" y="9.879999999999995" width="20.75" height="20" as="geometry" />
        </mxCell>
        <mxCell id="onRxSC0vhNo62aeHE-lM-226" value="&lt;font style=&quot;font-size: 10px&quot; color=&quot;#000099&quot;&gt;GameNameY =?&lt;/font&gt;" style="text;html=1;resizable=0;autosize=1;align=center;verticalAlign=middle;points=[];fillColor=none;strokeColor=none;rounded=0;shadow=0;" vertex="1" parent="1">
          <mxGeometry x="675" y="7" width="90" height="20" as="geometry" />
        </mxCell>
      </root>
    </mxGraphModel>
  </diagram>
</mxfile>
